# xmcd CD database file
#
# Track frame offsets:
#	150
#	19333
#	38930
#	58719
#	77566
#	97420
#	119433
#	144565
#	166740
#	193515
#	211045
#	231703
#	254658
#	276381
#	295905
#
# Disc length: 4177 seconds
#
# Revision: 2
# Processed by: cddbd v1.5.2PL0 Copyright (c) Steve Scherf et al.
# Submitted via: CDex 1.70beta3
#
DISCID=e9104f0f
DTITLE=榊原大 - 夜カフェ～ピアノ
DYEAR=2011
DGENRE=イージーリスニング
TTITLE0=Just yhe two of us
TTITLE1=The first cut is the deepest
TTITLE2=Smoke gets in your eyes
TTITLE3=Fifty ways to leave your lover
TTITLE4=So far away
TTITLE5=Viva La Vida
TTITLE6=Promising sign
TTITLE7=Back for good
TTITLE8=The greatest love of all
TTITLE9=Human nature
TTITLE10=Blue
TTITLE11=This masquerade
TTITLE12=Feliz
TTITLE13=Lullaby of Birdland
TTITLE14=Cavatina
EXTD=YEAR: 2011
EXTT0=
EXTT1=
EXTT2=
EXTT3=
EXTT4=
EXTT5=
EXTT6=
EXTT7=
EXTT8=
EXTT9=
EXTT10=
EXTT11=
EXTT12=
EXTT13=
EXTT14=
PLAYORDER=
